<svg width="98" height="88" viewBox="0 0 98 88" fill="none" xmlns="http://www.w3.org/2000/svg">
<path d="M24.4796 41.46C24.7053 41.5969 24.976 41.6391 25.2326 41.5773C25.4893 41.5155 25.7111 41.3547 25.8496 41.13L42.3096 14.31L48.9996 3.40998L71.3496 39.83L64.3496 41C64.0844 41.0212 63.8385 41.1469 63.666 41.3494C63.4934 41.552 63.4084 41.8148 63.4296 42.08C63.4508 42.3452 63.5766 42.5911 63.7791 42.7637C63.9816 42.9362 64.2444 43.0212 64.5096 43H64.6796L72.8996 41.63H72.9996C73.1835 41.6287 73.3634 41.5768 73.5196 41.48C73.5923 41.4307 73.6565 41.3699 73.7096 41.3L73.8396 41.13C73.8789 41.056 73.9124 40.9791 73.9396 40.9C73.9413 40.8667 73.9413 40.8333 73.9396 40.8L75.3496 32.32C75.393 32.0588 75.3311 31.791 75.1774 31.5755C75.0236 31.3599 74.7907 31.2141 74.5296 31.17C74.2684 31.1266 74.0007 31.1885 73.7851 31.3422C73.5695 31.496 73.4237 31.7289 73.3796 31.99L72.3796 37.89L49.8496 0.999982L49.7896 0.919983C49.7411 0.86812 49.6875 0.821222 49.6296 0.779983C49.6046 0.748174 49.5741 0.721083 49.5396 0.699983C49.36 0.593457 49.1516 0.545821 48.9436 0.563755C48.7355 0.581689 48.5383 0.664292 48.3796 0.799982C48.2947 0.861543 48.2232 0.939812 48.1696 1.02998L34.1696 23.84L24.1696 40.13C24.0431 40.3497 24.0047 40.6092 24.0622 40.8561C24.1198 41.1031 24.269 41.3189 24.4796 41.46Z" fill="#CFD8DD"/>
<path d="M44.9996 79.0001H2.7896L20.9996 49.3901L21.9996 55.2301C22.0379 55.4667 22.16 55.6817 22.3435 55.8359C22.5271 55.9901 22.7599 56.0732 22.9996 56.0701H23.1596C23.4207 56.026 23.6536 55.8802 23.8073 55.6646C23.9611 55.449 24.023 55.1813 23.9796 54.9201L22.5696 46.4301C22.5696 46.4301 22.5696 46.4301 22.5696 46.3801C22.5423 46.2642 22.4912 46.1552 22.4196 46.0601C22.2691 45.8505 22.0433 45.7071 21.7896 45.6601L13.2996 44.2401C13.0344 44.1963 12.7626 44.2597 12.5442 44.4163C12.3257 44.5729 12.1784 44.8099 12.1346 45.0751C12.0908 45.3403 12.1542 45.612 12.3108 45.8305C12.4674 46.049 12.7044 46.1963 12.9696 46.2401L19.9696 47.4101L0.149599 79.4801C0.0618307 79.6321 0.015625 79.8046 0.015625 79.9801C0.015625 80.1556 0.0618307 80.3281 0.149599 80.4801C0.233457 80.6335 0.356073 80.7623 0.505219 80.8535C0.654364 80.9447 0.824825 80.9953 0.999599 81.0001H44.9996C45.2648 81.0001 45.5192 80.8947 45.7067 80.7072C45.8942 80.5197 45.9996 80.2653 45.9996 80.0001C45.9996 79.7349 45.8942 79.4805 45.7067 79.293C45.5192 79.1054 45.2648 79.0001 44.9996 79.0001Z" fill="#CFD8DD"/>
<path d="M97.8498 79.4799L76.8498 45.2599C76.6978 45.0788 76.4865 44.9574 76.2534 44.9173C76.0204 44.8772 75.7807 44.921 75.5769 45.0409C75.3731 45.1608 75.2183 45.349 75.1401 45.5722C75.062 45.7954 75.0654 46.039 75.1498 46.2599L95.2098 78.9999H51.9398L55.8098 73.5799C55.9 73.4746 55.9673 73.3517 56.0074 73.219C56.0475 73.0863 56.0596 72.9468 56.043 72.8091C56.0263 72.6715 55.9812 72.5389 55.9105 72.4196C55.8398 72.3004 55.7451 72.1971 55.6324 72.1164C55.5197 72.0357 55.3915 71.9793 55.2558 71.9508C55.1201 71.9223 54.98 71.9224 54.8444 71.9509C54.7087 71.9794 54.5805 72.0359 54.4678 72.1166C54.3551 72.1973 54.2605 72.3006 54.1898 72.4199L49.1898 79.4199C49.1659 79.4578 49.1457 79.498 49.1298 79.5399L49.0698 79.6499C48.9897 79.8764 48.9897 80.1234 49.0698 80.3499C49.0905 80.3846 49.1073 80.4215 49.1198 80.4599C49.1198 80.4599 49.1198 80.5399 49.1898 80.5799L54.1898 87.5799C54.2818 87.7091 54.4033 87.8146 54.5441 87.8877C54.685 87.9607 54.8412 87.9992 54.9998 87.9999C55.2082 87.9986 55.411 87.9321 55.5798 87.8099C55.7938 87.6554 55.9381 87.4227 55.9812 87.1623C56.0243 86.9019 55.9627 86.635 55.8098 86.4199L51.9398 80.9999H96.9998C97.177 80.9996 97.3509 80.9522 97.5038 80.8626C97.6567 80.773 97.783 80.6444 97.8698 80.4899C97.9564 80.3349 98.0002 80.1597 97.9967 79.9822C97.9932 79.8047 97.9425 79.6313 97.8498 79.4799Z" fill="#CFD8DD"/>
<path d="M49.75 53.6499L52 51.0899C53.9541 48.8654 55.0318 46.0057 55.0318 43.0449C55.0318 40.084 53.9541 37.2244 52 34.9999L49.78 32.4399C49.6862 32.3335 49.5708 32.2483 49.4415 32.1899C49.3122 32.1315 49.1719 32.1013 49.03 32.1013C48.8882 32.1013 48.7479 32.1315 48.6186 32.1899C48.4893 32.2483 48.3739 32.3335 48.28 32.4399L46 34.9999C44.0323 37.2276 42.9463 40.0975 42.9463 43.0699C42.9463 46.0422 44.0323 48.9121 46 51.1399L48.22 53.6999C48.3139 53.8063 48.4293 53.8915 48.5586 53.9499C48.6879 54.0083 48.8282 54.0384 48.97 54.0384C49.1119 54.0384 49.2522 54.0083 49.3815 53.9499C49.5108 53.8915 49.6262 53.8063 49.72 53.6999L49.75 53.6499ZM47.54 49.7799C45.8915 47.9139 44.9816 45.5098 44.9816 43.0199C44.9816 40.53 45.8915 38.1259 47.54 36.2599L49 34.5699L50.46 36.2599C52.1086 38.1259 53.0185 40.53 53.0185 43.0199C53.0185 45.5098 52.1086 47.9139 50.46 49.7799L49 51.4699L47.54 49.7799Z" fill="#CFD8DD"/>
<path d="M63.0498 48.3699L60.2898 48.5799C57.8194 48.7605 55.4964 49.8236 53.745 51.575C51.9935 53.3265 50.9304 55.6495 50.7498 58.1199L50.5398 60.8799C50.5293 61.0231 50.5498 61.1669 50.5998 61.3015C50.6498 61.4361 50.7283 61.5583 50.8298 61.6599C50.9232 61.7525 51.034 61.8259 51.1559 61.8756C51.2777 61.9254 51.4082 61.9506 51.5398 61.9499H51.6198L54.3698 61.7399C56.8409 61.5613 59.165 60.4988 60.9169 58.747C62.6687 56.9951 63.7312 54.6709 63.9098 52.1999L64.1198 49.4399C64.1303 49.2967 64.1098 49.1529 64.0598 49.0183C64.0097 48.8837 63.9313 48.7614 63.8298 48.6599C63.7282 48.5584 63.606 48.4799 63.4714 48.4299C63.3368 48.3798 63.193 48.3594 63.0498 48.3699ZM61.9198 52.0499C61.7736 54.0427 60.9152 55.9163 59.5014 57.3283C58.0875 58.7403 56.2128 59.5963 54.2198 59.7399L52.6298 59.8699L52.7498 58.2699C52.8939 56.2763 53.7517 54.4015 55.1659 52.9891C56.5802 51.5767 58.4561 50.7214 60.4498 50.5799L61.9998 50.4499L61.9198 52.0499Z" fill="#CFD8DD"/>
<path d="M37.7094 48.5799L34.9994 48.3699C34.8562 48.3594 34.7124 48.3798 34.5778 48.4299C34.4432 48.4799 34.321 48.5584 34.2194 48.6599C34.1179 48.7614 34.0395 48.8837 33.9894 49.0183C33.9394 49.1529 33.9189 49.2967 33.9294 49.4399L34.1394 52.1999C34.318 54.6709 35.3805 56.9951 37.1323 58.747C38.8842 60.4988 41.2084 61.5613 43.6794 61.7399L46.4294 61.9499H46.5094C46.641 61.9506 46.7715 61.9254 46.8933 61.8756C47.0152 61.8259 47.126 61.7525 47.2194 61.6599C47.3209 61.5583 47.3994 61.4361 47.4494 61.3015C47.4995 61.1669 47.5199 61.0231 47.5094 60.8799L47.2994 58.1199C47.1174 55.6415 46.0472 53.3121 44.2854 51.5595C42.5237 49.807 40.1887 48.749 37.7094 48.5799ZM43.7794 59.7399C41.7864 59.5963 39.9117 58.7403 38.4978 57.3283C37.084 55.9163 36.2256 54.0427 36.0794 52.0499L35.9994 50.4499L37.5894 50.5799C39.5831 50.7214 41.4591 51.5767 42.8733 52.9891C44.2875 54.4015 45.1453 56.2763 45.2894 58.2699L45.4094 59.8699L43.7794 59.7399Z" fill="#CFD8DD"/>
</svg>
