<svg width="342" height="347" viewBox="0 0 342 347" fill="none" xmlns="http://www.w3.org/2000/svg">
<g clip-path="url(#clip0_1732_62)">
<path d="M171 19.2778C140.937 19.2778 111.55 28.3228 86.5534 45.269C61.5571 62.2151 42.0749 86.3013 30.5704 114.482C19.0659 142.662 16.0558 173.671 21.9207 203.587C27.7857 233.504 42.2623 260.983 63.5198 282.552C84.7774 304.12 111.861 318.808 141.346 324.759C170.831 330.71 201.394 327.656 229.168 315.983C256.942 304.31 280.681 284.543 297.383 259.181C314.085 233.82 323 204.002 323 173.5C323 132.598 306.986 93.3708 278.48 64.4485C249.975 35.5262 211.313 19.2778 171 19.2778ZM171 308.445C144.695 308.445 118.981 300.53 97.1092 285.702C75.2375 270.874 58.1905 249.799 48.1241 225.141C38.0576 200.483 35.4238 173.35 40.5556 147.174C45.6875 120.997 58.3545 96.9522 76.9549 78.0799C95.5552 59.2076 119.254 46.3554 145.053 41.1485C170.853 35.9417 197.594 38.614 221.897 48.8276C246.2 59.0413 266.971 76.3374 281.586 98.5289C296.2 120.72 304 146.811 304 173.5C304 209.29 289.988 243.613 265.045 268.92C240.103 294.227 206.274 308.445 171 308.445Z" fill="white"/>
<path d="M252.843 124.152C251.476 122.774 249.627 122 247.701 122C245.774 122 243.925 122.774 242.559 124.152L161.601 205.912L117.84 161.517C116.505 160.055 114.653 159.191 112.69 159.115C110.727 159.039 108.815 159.756 107.374 161.11C105.933 162.464 105.081 164.344 105.005 166.335C104.93 168.326 105.638 170.266 106.972 171.728L161.601 227L252.843 134.658C253.526 133.971 254.069 133.152 254.439 132.251C254.809 131.349 255 130.382 255 129.405C255 128.428 254.809 127.461 254.439 126.559C254.069 125.658 253.526 124.839 252.843 124.152Z" fill="white"/>
</g>
<defs>
<clipPath id="clip0_1732_62">
<rect width="342" height="347" fill="white"/>
</clipPath>
</defs>
</svg>
