<svg width="128" height="128" viewBox="0 0 128 128" fill="none" xmlns="http://www.w3.org/2000/svg">
<path d="M64 0C28.656 0 0 28.656 0 64C0 99.344 28.656 128 64 128C99.344 128 128 99.344 128 64C128 28.656 99.344 0 64 0ZM64 120C33.125 120 8 94.875 8 64C8 33.125 33.125 8 64 8C94.875 8 120 33.125 120 64C120 94.875 94.875 120 64 120ZM83.797 41.375L55.516 69.656L44.203 58.344C41.078 55.219 36.008 55.219 32.89 58.344C29.765 61.469 29.765 66.539 32.89 69.657L49.859 86.626C52.976 89.751 58.047 89.751 61.172 86.626L95.11 52.688C98.235 49.563 98.235 44.493 95.11 41.375C91.992 38.25 86.922 38.25 83.797 41.375Z" fill="#3CAA3C"/>
</svg>
