<svg width="99" height="99" viewBox="0 0 99 99" fill="none" xmlns="http://www.w3.org/2000/svg">
<g clip-path="url(#clip0_1732_57)">
<path d="M49.5 0C22.2049 0 0 22.2049 0 49.5C0 76.7951 22.2049 99 49.5 99C76.7951 99 99 76.7951 99 49.5C99 22.2049 76.7951 0 49.5 0ZM49.5 94.875C24.4819 94.875 4.125 74.5181 4.125 49.5C4.125 24.4819 24.4819 4.125 49.5 4.125C74.5181 4.125 94.875 24.4819 94.875 49.5C94.875 74.5181 74.5181 94.875 49.5 94.875Z" fill="#3CAA3C"/>
<path d="M69.3046 34.6623L44.0101 59.9609L31.9816 47.9324C31.1772 47.128 29.8696 47.128 29.0652 47.9324C28.2608 48.7368 28.2608 50.0444 29.0652 50.8488L42.5539 64.3375C42.9417 64.7253 43.4656 64.9398 44.0142 64.9398C44.5628 64.9398 45.0867 64.7211 45.4744 64.3375L72.2251 37.5828C73.0294 36.7784 73.0294 35.4708 72.2251 34.6664C71.4207 33.862 70.1131 33.8579 69.3046 34.6623Z" fill="#3CAA3C"/>
</g>
<defs>
<clipPath id="clip0_1732_57">
<rect width="99" height="99" fill="white"/>
</clipPath>
</defs>
</svg>
