<svg width="310" height="186" viewBox="0 0 310 186" fill="none" xmlns="http://www.w3.org/2000/svg">
<path d="M81.3 158.002C78.67 158.002 76.01 157.172 73.75 155.442L4.89001 102.852C1.81001 100.502 0 96.8421 0 92.9621C0 89.0821 1.81001 85.4221 4.89001 83.0721L73.75 30.4821C79.21 26.3121 87.02 27.3521 91.2 32.8221C95.37 38.2821 94.33 46.0921 88.86 50.2721L32.95 92.9721L88.86 135.672C94.32 139.842 95.37 147.652 91.2 153.122C88.75 156.322 85.04 158.002 81.3 158.002Z" fill="#CFD8DD"/>
<path d="M228.7 158.002C224.95 158.002 221.25 156.312 218.8 153.112C214.63 147.652 215.67 139.842 221.14 135.662L277.05 92.962L221.14 50.2621C215.68 46.0921 214.63 38.282 218.8 32.812C222.97 27.352 230.78 26.302 236.25 30.472L305.11 83.062C308.19 85.412 310 89.072 310 92.952C310 96.832 308.19 100.492 305.11 102.842L236.25 155.432C234 157.172 231.34 158.002 228.7 158.002Z" fill="#CFD8DD"/>
<path d="M132.51 185.932C131.4 185.932 130.27 185.782 129.15 185.472C122.53 183.622 118.66 176.752 120.51 170.132L165.51 9.10219C167.36 2.48219 174.23 -1.38782 180.85 0.462178C187.47 2.31218 191.34 9.18214 189.49 15.8021L144.49 176.832C142.95 182.332 137.95 185.932 132.51 185.932Z" fill="#CFD8DD"/>
</svg>
